<svg xmlns="http://www.w3.org/2000/svg" xmlns:xlink="http://www.w3.org/1999/xlink" fill="none" version="1.1" width="480" height="480" viewBox="0 0 480 480"><defs><clipPath id="master_svg0_13_0190"><rect x="0" y="0" width="480" height="480" rx="0"/></clipPath></defs><g clip-path="url(#master_svg0_13_0190)"><g><path d="M33.04868,139C30.692065,139,30.207013,142.74557,32.44571,143.48167Q80.8571,159.3998,98.2842,191.9213Q126.3892,244.369,73.9089,340L230.909,139L33.04868,139ZM447.309,149.6251C451.581,147.69921,450.277,139.499939,445.591,139.499939L272.409,139.499939L422.072,340.5Q370.713,242.324,400.317,189.6596Q414.509,164.4123,447.309,149.6251ZM112.9089,335L398.409,335Q271.909,311,241.409,280Q213.094,251.22,246.402,159.5234C247.203,157.319,244.122,155.6446,242.737,157.5374L112.9089,335Z" fill-rule="evenodd" fill="#5FA652" fill-opacity="1"/></g></g></svg>